<svg width="196" height="194" viewBox="0 0 196 194" fill="none" xmlns="http://www.w3.org/2000/svg">
<g filter="url(#filter0_d_4_9)">
<mask id="mask0_4_9" style="mask-type:alpha" maskUnits="userSpaceOnUse" x="26" y="22" width="144" height="142">
<ellipse cx="98.1088" cy="92.7249" rx="71.3352" ry="70.7249" fill="#C4C4C4"/>
</mask>
<g mask="url(#mask0_4_9)">
<path d="M190.903 55.1419C191.133 8.81881 161.904 -28.8774 125.617 -29.0549C89.3303 -29.2323 59.7273 8.17611 59.4968 54.4992C59.2663 100.822 88.4957 138.519 124.782 138.696C161.069 138.874 190.672 101.465 190.903 55.1419Z" fill="#68215D"/>
<path d="M172.616 78.6555C172.847 32.3324 143.617 -5.36383 107.33 -5.5413C71.0437 -5.71878 41.4407 31.6897 41.2102 78.0128C40.9797 124.336 70.209 162.032 106.496 162.21C142.782 162.387 172.386 124.979 172.616 78.6555Z" fill="#A31A5A"/>
<path d="M154.331 102.179C154.562 55.8555 125.332 18.1593 89.0458 17.9818C52.7591 17.8044 23.156 55.2128 22.9255 101.536C22.695 147.859 51.9244 185.555 88.2111 185.733C124.498 185.91 154.101 148.502 154.331 102.179Z" fill="#D11253"/>
<path d="M136.045 125.698C136.275 79.3749 107.046 41.6787 70.7592 41.5012C34.4724 41.3237 4.86939 78.7322 4.6389 125.055C4.40841 171.378 33.6378 209.075 69.9245 209.252C106.211 209.43 135.814 172.021 136.045 125.698Z" fill="#E8501B"/>
<path d="M117.758 149.215C117.989 102.892 88.7593 65.1961 52.4725 65.0186C16.1858 64.8411 -13.4172 102.25 -13.6477 148.573C-13.8782 194.896 15.3511 232.592 51.6378 232.77C87.9246 232.947 117.528 195.539 117.758 149.215Z" fill="#F29104"/>
<path d="M99.4754 172.735C99.7059 126.412 70.4765 88.7154 34.1898 88.5379C-2.09689 88.3605 -31.6999 125.769 -31.9304 172.092C-32.1609 218.415 -2.93157 256.111 33.3551 256.289C69.6419 256.466 99.2449 219.058 99.4754 172.735Z" fill="#FBBC04"/>
<path d="M81.1836 196.249C81.4144 149.926 52.1853 112.23 15.8986 112.053C-20.3881 111.876 -49.9914 149.284 -50.2223 195.608C-50.4531 241.931 -21.224 279.627 15.0627 279.804C51.3494 279.981 80.9527 242.573 81.1836 196.249Z" fill="#FFD13D"/>
</g>
<path d="M114.754 101.188L100.525 88.3906C99.3105 87.2983 97.3162 87.2983 96.102 88.3906L81.8723 101.188C80.6581 102.28 80.6581 104.074 81.8723 105.166L96.102 117.969C97.3162 119.061 99.3105 119.061 100.525 117.969L114.754 105.166C115.969 104.074 115.969 102.285 114.754 101.188ZM105.129 104.444L99.3574 109.636C98.7826 110.153 97.8441 110.153 97.2693 109.636L91.4976 104.444C90.9228 103.926 90.9228 103.082 91.4976 102.565L97.2634 97.3775V96.4224H99.199V97.2509C99.2577 97.2878 99.3105 97.3247 99.3633 97.3722L105.135 102.565C105.704 103.082 105.704 103.926 105.129 104.444Z" fill="white"/>
<path d="M134.597 78.0898C134.597 72.5172 129.577 68 123.383 68C117.189 68 112.168 72.5172 112.168 78.0898C112.168 79.7837 112.637 81.3827 113.458 82.7864L120.954 76.0423C121.558 75.4671 122.415 75.1029 123.371 75.1029C125.189 75.1029 126.667 76.4169 126.697 78.0476V115.916C126.697 117.494 128.128 118.781 129.882 118.781H131.401C133.155 118.781 134.586 117.494 134.586 115.916V78.3906C134.592 78.2903 134.597 78.19 134.597 78.0898Z" fill="white"/>
<path d="M112.15 105.061L113.476 103.868C114.643 102.818 114.643 101.093 113.476 100.042L81.0043 70.8285C79.837 69.7784 77.919 69.7784 76.7518 70.8285L75.4262 72.0211C74.2589 73.0713 74.2589 74.7969 75.4262 75.847L107.898 105.061C109.071 106.116 110.983 106.116 112.15 105.061Z" fill="white"/>
<path d="M69.895 108.707V78.0528C69.9243 76.4222 71.4024 75.1082 73.2207 75.1082C74.1709 75.1082 75.0273 75.4671 75.6373 76.0475L83.1334 82.7916C83.9546 81.3879 84.4238 79.789 84.4238 78.095C84.4297 72.5172 79.4088 68 73.2149 68C67.0209 68 62 72.5172 62 78.0898C62 78.19 62.0059 78.2903 62.0059 78.3906V108.692H62C62 114.264 67.0209 118.781 73.2149 118.781C78.3178 118.781 82.6231 115.715 83.9781 111.52H73.2149C71.4493 111.515 70.0064 110.275 69.895 108.707Z" fill="white"/>
<path d="M120.614 72.4486L119.288 71.256C118.121 70.2058 116.203 70.2058 115.036 71.256L85.3095 98.0002C84.1423 99.0503 84.1423 100.776 85.3095 101.826L86.6351 103.019C87.8024 104.069 89.7204 104.069 90.8876 103.019L120.614 76.2745C121.787 75.2243 121.787 73.4987 120.614 72.4486Z" fill="white"/>
</g>
<defs>
<filter id="filter0_d_4_9" x="0.773621" y="0" width="194.67" height="193.45" filterUnits="userSpaceOnUse" color-interpolation-filters="sRGB">
<feFlood flood-opacity="0" result="BackgroundImageFix"/>
<feColorMatrix in="SourceAlpha" type="matrix" values="0 0 0 0 0 0 0 0 0 0 0 0 0 0 0 0 0 0 127 0" result="hardAlpha"/>
<feOffset dy="4"/>
<feGaussianBlur stdDeviation="13"/>
<feColorMatrix type="matrix" values="0 0 0 0 0 0 0 0 0 0 0 0 0 0 0 0 0 0 0.25 0"/>
<feBlend mode="normal" in2="BackgroundImageFix" result="effect1_dropShadow_4_9"/>
<feBlend mode="normal" in="SourceGraphic" in2="effect1_dropShadow_4_9" result="shape"/>
</filter>
</defs>
</svg>
